<?xml version="1.0" encoding="UTF-8"?>
<!DOCTYPE svg PUBLIC "-//W3C//DTD SVG 1.1//EN" "http://www.w3.org/Graphics/SVG/1.1/DTD/svg11.dtd">
<!-- Creator: CorelDRAW 2021.5 -->
<svg xmlns="http://www.w3.org/2000/svg" xml:space="preserve" width="1.23334in" height="0.333335in" version="1.1" style="shape-rendering:geometricPrecision; text-rendering:geometricPrecision; image-rendering:optimizeQuality; fill-rule:evenodd; clip-rule:evenodd"
viewBox="0 0 25.44 6.88"
 xmlns:xlink="http://www.w3.org/1999/xlink"
 xmlns:xodm="http://www.corel.com/coreldraw/odm/2003">
 <defs>
  <style type="text/css">
   <![CDATA[
    .fil1 {fill:#F7035A}
    .fil0 {fill:#F7035A;fill-rule:nonzero}
   ]]>
  </style>
 </defs>
 <g id="Layer_x0020_1">
  <metadata id="CorelCorpID_0Corel-Layer"/>
  <path class="fil0" d="M10.86 5.14c-0.1,0.04 -0.2,0.08 -0.32,0.12 -0.12,0.04 -0.24,0.07 -0.36,0.1 -0.13,0.02 -0.25,0.04 -0.37,0.04 -0.17,0 -0.33,-0.03 -0.48,-0.09 -0.15,-0.06 -0.26,-0.15 -0.35,-0.29 -0.08,-0.13 -0.13,-0.31 -0.13,-0.53l0 -1.78 -0.44 0 0 -0.8 0.44 0 0 -1.1 1.04 0 0 1.1 0.7 0 0 0.8 -0.7 0 0 1.41c0,0.11 0.03,0.19 0.08,0.24 0.06,0.05 0.13,0.07 0.21,0.07 0.07,0 0.15,-0.01 0.24,-0.04 0.08,-0.03 0.16,-0.05 0.22,-0.09l0.2 0.84zm2.57 -2.37c-0.25,0 -0.48,0.04 -0.68,0.12 -0.2,0.08 -0.35,0.2 -0.44,0.36l0 2.07 -1.04 0 0 -3.42 0.96 0 0 0.66c0.12,-0.23 0.27,-0.41 0.46,-0.55 0.19,-0.13 0.38,-0.2 0.59,-0.2 0.05,0 0.08,0 0.11,0 0.02,0 0.04,0 0.06,0.01l0 0.95zm2.05 2.62c-0.29,0 -0.55,-0.05 -0.78,-0.14 -0.23,-0.09 -0.42,-0.22 -0.58,-0.38 -0.16,-0.16 -0.28,-0.35 -0.36,-0.56 -0.08,-0.21 -0.12,-0.43 -0.12,-0.66 0,-0.33 0.07,-0.63 0.22,-0.9 0.15,-0.27 0.36,-0.49 0.63,-0.65 0.27,-0.17 0.6,-0.25 0.99,-0.25 0.39,0 0.72,0.08 0.99,0.25 0.27,0.16 0.48,0.38 0.62,0.65 0.14,0.27 0.22,0.55 0.22,0.87 0,0.06 -0,0.12 -0.01,0.18 -0.01,0.06 -0.01,0.11 -0.02,0.15l-2.53 0c0.01,0.15 0.06,0.28 0.13,0.38 0.07,0.1 0.16,0.18 0.28,0.23 0.11,0.05 0.23,0.08 0.36,0.08 0.16,0 0.3,-0.04 0.44,-0.11 0.14,-0.07 0.23,-0.18 0.28,-0.3l0.89 0.25c-0.09,0.18 -0.21,0.34 -0.37,0.48 -0.16,0.14 -0.35,0.25 -0.56,0.33 -0.21,0.08 -0.45,0.12 -0.71,0.12zm-0.76 -2.09l1.49 0c-0.02,-0.14 -0.06,-0.26 -0.12,-0.36 -0.07,-0.1 -0.15,-0.18 -0.26,-0.24 -0.11,-0.06 -0.23,-0.08 -0.36,-0.08 -0.13,0 -0.26,0.03 -0.36,0.08 -0.11,0.06 -0.19,0.14 -0.26,0.24 -0.07,0.1 -0.11,0.22 -0.12,0.36zm6.35 2.03l-1.04 0 0 -1.9c0,-0.22 -0.04,-0.39 -0.13,-0.49 -0.08,-0.1 -0.2,-0.15 -0.34,-0.15 -0.1,0 -0.19,0.03 -0.29,0.08 -0.1,0.05 -0.19,0.12 -0.27,0.21 -0.08,0.09 -0.14,0.19 -0.19,0.3l0 1.95 -1.04 0 0 -3.42 0.94 0 0 0.58c0.09,-0.13 0.2,-0.25 0.33,-0.34 0.13,-0.1 0.28,-0.17 0.45,-0.22 0.17,-0.05 0.35,-0.07 0.55,-0.07 0.22,0 0.4,0.04 0.54,0.12 0.14,0.08 0.24,0.19 0.31,0.32 0.07,0.13 0.12,0.27 0.14,0.42 0.02,0.15 0.04,0.3 0.04,0.44l0 2.18zm0.5 -1.71c0,-0.33 0.07,-0.63 0.2,-0.9 0.13,-0.27 0.31,-0.48 0.53,-0.63 0.23,-0.16 0.49,-0.23 0.78,-0.23 0.24,0 0.46,0.06 0.65,0.17 0.2,0.12 0.34,0.27 0.44,0.46l0 -1.97 1.04 0 0 3.63c0,0.11 0.02,0.18 0.05,0.22 0.03,0.04 0.09,0.07 0.17,0.08l0 0.88c-0.18,0.04 -0.33,0.05 -0.44,0.05 -0.18,0 -0.32,-0.04 -0.43,-0.12 -0.11,-0.08 -0.18,-0.19 -0.21,-0.33l-0.02 -0.18c-0.12,0.22 -0.29,0.38 -0.5,0.48 -0.21,0.11 -0.43,0.16 -0.66,0.16 -0.23,0 -0.45,-0.04 -0.65,-0.13 -0.2,-0.09 -0.37,-0.21 -0.51,-0.37 -0.15,-0.16 -0.26,-0.35 -0.34,-0.56 -0.08,-0.22 -0.12,-0.45 -0.12,-0.7zm2.61 0.42l0 -0.7c-0.04,-0.12 -0.11,-0.22 -0.19,-0.3 -0.08,-0.08 -0.17,-0.15 -0.27,-0.2 -0.1,-0.05 -0.21,-0.08 -0.31,-0.08 -0.11,0 -0.22,0.02 -0.31,0.07 -0.09,0.05 -0.17,0.11 -0.24,0.2 -0.07,0.08 -0.12,0.18 -0.16,0.28 -0.04,0.11 -0.06,0.22 -0.06,0.34 0,0.12 0.02,0.24 0.06,0.34 0.04,0.1 0.1,0.2 0.17,0.28 0.07,0.08 0.16,0.14 0.26,0.18 0.1,0.04 0.21,0.06 0.33,0.06 0.07,0 0.15,-0.01 0.22,-0.04 0.07,-0.02 0.14,-0.05 0.2,-0.09 0.06,-0.04 0.12,-0.09 0.17,-0.15 0.05,-0.06 0.1,-0.12 0.13,-0.19z"/>
  <polygon class="fil1" points="8.42,1.82 10.59,1.82 10.59,2.65 8.42,2.65 "/>
  <path class="fil0" d="M5.18 1.56c0.38,0.21 0.68,0.55 0.9,0.95 0.06,0.11 0.12,0.23 0.17,0.35 -0.15,0.35 -0.27,0.73 -0.39,1.11 -0.03,0.11 -0.07,0.21 -0.1,0.32 -0.08,-0.43 -0.22,-0.94 -0.45,-1.35 -0.04,-0.06 -0.07,-0.13 -0.11,-0.18l0.06 -0.35c0.02,-0.11 0.03,-0.23 0.03,-0.34 -0,-0.19 -0.04,-0.36 -0.11,-0.51zm-0.76 0.34l0.01 -0.17c0.04,0.02 0.07,0.05 0.09,0.07 0.02,0.03 0.04,0.07 0.06,0.11 -0.05,-0.01 -0.11,-0.01 -0.16,-0.01zm2.16 2.07c0.03,0.14 0.05,0.27 0.07,0.39 -0.09,0.28 -0.18,0.57 -0.29,0.83l-0.2 0c0.13,-0.32 0.24,-0.67 0.35,-1.02 0.02,-0.07 0.04,-0.14 0.06,-0.21z"/>
  <path class="fil1" d="M2.13 3.7c0.22,0.53 0.9,0.47 1.22,0.03 0.47,-0.83 1.1,-1.15 1.48,-0.53 0.22,0.38 0.31,0.83 0.4,1.27 0.2,0.89 -0.25,0.91 -0.7,0.93 -1.17,0 -2.35,0 -3.52,0 -0.89,0.02 -1.24,-0.41 -0.83,-1.26 0.24,-0.4 0.49,-0.81 0.79,-1.04 0.58,-0.42 0.94,-0.12 1.17,0.6z"/>
  <path class="fil1" d="M3.62 1.3l-1.94 0c-0,-0.02 -0,-0.04 -0,-0.06 0,-0.27 0.11,-0.52 0.28,-0.69 0.18,-0.18 0.42,-0.29 0.69,-0.29 0.27,0 0.51,0.11 0.69,0.29 0.18,0.18 0.28,0.42 0.28,0.69 0,0.02 -0,0.04 -0,0.06zm-3.13 1.07c0.49,-0.39 1.35,-1 1.69,-0.06 0.24,0.72 0.59,1.26 1.07,0.66 0.45,-0.55 0.91,-0.91 1.67,-0.62 0.1,-0.63 -0.13,-1.06 -0.94,-1.05l-0.1 0c0,-0.02 0,-0.04 0,-0.06 0,-0.34 -0.14,-0.65 -0.36,-0.88 -0.22,-0.23 -0.53,-0.36 -0.87,-0.36 -0.34,0 -0.65,0.14 -0.87,0.36 -0.22,0.23 -0.36,0.54 -0.36,0.88 0,0.02 0,0.04 0,0.06l-0.1 0c-0.99,-0.02 -0.85,0.56 -0.83,1.07z"/>
  <path class="fil1" d="M8.07 2.71c-0.54,-0.03 -0.79,0.79 -1.05,1.64 -0.33,1.07 -0.67,2.17 -1.71,2.45 -0.41,0.11 -0.63,0.1 -1.1,0.03l0.14 -0.87c0.35,0.06 0.46,0.06 0.74,-0.01 0.57,-0.15 0.84,-1.02 1.09,-1.86 0.36,-1.18 0.71,-2.31 1.92,-2.25l-0.04 0.88z"/>
 </g>
</svg>
